<svg width="772" height="618" fill="none" xmlns="http://www.w3.org/2000/svg">
    <g fill="white" >
        <path d="M385.583 0c58.655 1.749 101.989 28.083 130 79 .825.886 1.825 1.219 3 1 42.518-13.247 81.518-6.414 117 20.5 29.215 27.271 41.382 60.771 36.5 100.5 34.957 9.489 62.457 29.156 82.5 59 22.784 38.364 22.617 76.698-.5 115-14.016 19.925-32.516 33.925-55.5 42 5.755 53.984-14.245 95.15-60 123.5-35.352 19.65-72.685 24.816-112 15.5-3.009 4.03-6.009 8.03-9 12-.333 1-1 1.667-2 2-16.163 16.93-35.496 29.097-58 36.5-43.618 13.768-87.618 15.101-132 4-28.287-7.385-52.454-21.551-72.5-42.5a123.166 123.166 0 0 1-8.5-12c-23.391 6.246-46.725 6.579-70 1-13.826-2.831-26.826-7.831-39-15-15.778-8.772-29.112-20.439-40-35l-.922-1.24C75.49 479.672 67.963 450.418 72.083 418c-20.064-7.265-36.564-19.265-49.5-36-6.85-8.353-12.182-17.686-16-28-5.694-15.883-7.694-32.216-6-49 .146-3.887.813-7.554 2-11l.372-1.432c7.96-29.956 24.837-53.646 50.628-71.068 14.103-9.134 29.269-15.967 45.5-20.5-5.193-54.466 16.64-93.966 65.5-118.5 19.342-7.335 39.342-10.335 60-9a976.376 976.376 0 0 0 31 6c27.831-51.241 71.165-77.741 130-79.5Zm110.5 80c-29.854-45.174-72.02-65.674-126.5-61.5-50.95 8.459-85.95 36.625-105 84.5-30.075-14.193-60.741-15.693-92-4.5-47.866 24.909-65.532 63.742-53 116.5-23.375 3.359-44.375 12.192-63 26.5-36.416 29.831-46.916 66.998-31.5 111.5 14.583 27.073 36.75 44.74 66.5 53l1 2.5c-8.334 34.173-1.667 65.006 20 92.5 39.482 40.203 86.148 51.536 140 34a155.663 155.663 0 0 0 13 20c24.371 24.682 54.037 39.015 89 43l.918-.017c4.273-.032 8.357.55 12.251 1.75l.831.267c24.014 1.86 47.681-.307 71-6.5 22.508-6.084 42.508-16.584 60-31.5.333-1 1-1.667 2-2 6.179-7.169 11.512-15.002 16-23.5 1.667-.667 3.333-.667 5 0 30.302 9.321 60.302 8.321 90-3 55.337-24.674 77.004-66.674 65-126a549.48 549.48 0 0 0 33-15c14.645-9.643 26.145-22.143 34.5-37.5 16.86-45.585 6.36-83.585-31.5-114-18.799-13.832-39.799-22.832-63-27 3.822-13.032 5.489-26.366 5-40-.951-1.419-1.284-3.085-1-5a97.147 97.147 0 0 0-9.5-28c-23.62-37.945-57.768-54.32-102.443-49.127l-1.057.127a187.247 187.247 0 0 0-36 11c-2.034-8.076-5.2-15.742-9.5-23ZM364.957 599.857v-.001.001Zm123.114-15.669h.001l-.489-.188.488.188ZM186.083 242c4.719 3.217 8.552 7.217 11.5 12-1.777 3.612-4.444 6.445-8 8.5a153.092 153.092 0 0 1-18 8 722.43 722.43 0 0 0-57 16 68.669 68.669 0 0 0-14 7c-3.398 2.296-5.953 5.223-7.668 8.78l-.332.72-.034.544c-.27 5.593 1.574 10.412 5.534 14.456 25.203 22.451 53.703 27.951 85.5 16.5a74.57 74.57 0 0 0 12.5-7.5 361.476 361.476 0 0 1 24-68c2.344-5.046 6.177-7.546 11.5-7.5 35.332 25.424 68.332 22.757 99-8 1.667-.667 3.333-.667 5 0 25.149 28.306 53.815 32.64 86 13a157.97 157.97 0 0 1 16.5-13.5 1138.51 1138.51 0 0 1 25.5 18.5c14.98 7.902 30.647 9.568 47 5a168.337 168.337 0 0 0 31-15.5c4.219 1.383 7.385 4.05 9.5 8a735.95 735.95 0 0 1 13.5 34l.763 1.811a136.354 136.354 0 0 1 7.875 26.25l.362 1.939.115.476c.623 2.356 1.919 4.365 3.885 6.024 19.393 12.008 40.06 14.674 62 8 10.484-3.489 20.15-8.489 29-15 8.147-5.748 10.98-13.248 8.5-22.5-7.501-7.338-16.335-12.505-26.5-15.5a1116.687 1116.687 0 0 1-55-15 86.098 86.098 0 0 1-19-10c-1.888-1.95-3.054-4.117-3.5-6.5 3.5-2.167 6.333-5 8.5-8.5a16.2 16.2 0 0 1 3.5-1.5c5.451 4.646 11.618 8.146 18.5 10.5a2144.816 2144.816 0 0 1 62 18c14.331 4.67 24.498 13.837 30.5 27.5 1.627 11.407-1.373 21.407-9 30-22.719 21.797-49.886 31.297-81.5 28.5a108.409 108.409 0 0 1-27-7.5c-1.003 38.509-16.67 69.343-47 92.5-28.525 18.844-59.858 30.177-94 34-47.478 6.541-94.478 4.208-141-7-30.088-8.12-55.921-23.286-77.5-45.5-17.592-21.771-26.259-46.771-26-75-37.351 15.435-71.851 10.602-103.5-14.5-11.644-9.455-16.477-21.622-14.5-36.5.86-3.133 2.36-5.8 4.5-8 10.408-11.882 23.408-19.715 39-23.5a1044.401 1044.401 0 0 0 53-15 66.694 66.694 0 0 0 14.5-9.5Zm252.5 24c-27.26 22.208-56.926 26.041-89 11.5a294.573 294.573 0 0 1-17-11.5c-31.329 24.838-64.162 27.172-98.5 7-12.98 24.441-20.813 50.441-23.5 78 1.324 34.822 16.324 61.988 45 81.5 30 17.253 62.333 26.92 97 29 45.755 4.302 90.422-.698 134-15 13.082-4.704 25.082-11.204 36-19.5l2-1 1.163-.991c24.217-20.91 35.496-47.58 33.837-80.009.771 3.26 1.259 6.686 1.463 10.279l.037.721-.037-.721a65.782 65.782 0 0 0-.223-2.839 61.655 61.655 0 0 0-.345-2.767 53.385 53.385 0 0 0-.466-2.697 50.699 50.699 0 0 0-.429-1.976 201.116 201.116 0 0 0-12-49 7.957 7.957 0 0 1 .397-.599 6.818 6.818 0 0 1-.397.599 119.708 119.708 0 0 0-11-22c-34.488 19.271-67.154 16.605-98-8Zm41.728 193.842h.001-.001Zm-1.406-1.148h.001-.001Zm22.582-2.865h.001-.001Zm3.796-1.974h.001-.001Zm-.832-.576h.001-.001Zm17.735-23.336h.001-.001ZM365.583 375c2.82-.252 5.486.248 8 1.5a136.857 136.857 0 0 0 12 9.5 70.442 70.442 0 0 0 14-10.5c8.468-1.241 11.468 2.259 9 10.5a452.912 452.912 0 0 0-15.5 13l-1 12c-2.844 5.366-6.844 6.366-12 3a67.445 67.445 0 0 1-2-15l-15-13c-2.416-4.422-1.583-8.089 2.5-11Zm-86-52c22.744-1.105 31.244 9.228 25.5 31-8.248 10.656-18.415 12.823-30.5 6.5-10.791-9.696-11.791-20.363-3-32a59.693 59.693 0 0 1 8-5.5Zm184.5 26c-1.34-18.992 7.493-27.492 26.5-25.5 3.666 1.354 6.825 3.343 9.476 5.967l.524.533.349.525c7.199 11.011 5.749 21.002-4.349 29.975a10.165 10.165 0 0 1-3.471 1.408l-.529.092c-13.208 4.319-22.708-.014-28.5-13Zm135.173 5.002Zm-2.224-.36.001-.001-.001.001Zm-34.121-3.197h.001-.001Zm-.355-1.312h.001-.001Zm15.151-2.836a4.42 4.42 0 0 0 1.125 1.5h.001a4.39 4.39 0 0 1-1.125-1.501l-.001.001Zm14.942-.645Zm-11.363 1.149c-.163.081-.326.165-.489.249a31.62 31.62 0 0 1 1.228-.603l-.739.354Zm-2.594-1.613h.001-.001Zm1.009-1.215h.001-.001Zm.291-.736-.015.053.016-.053c.013-.051.022-.103.032-.155-.01.052-.02.104-.033.155Zm.011-1.357h.001-.001Zm-9.32-.222c.068.051.135.104.201.161l.199.181-.198-.181a3.727 3.727 0 0 0-.201-.161h-.001Zm-.619-.362h.001-.001Zm9.314-.865h.001-.001Zm-10.4.659Zm9.656-1.258h.001-.001Zm6.012-.209a5.05 5.05 0 0 0-.287.178h.001a5.05 5.05 0 0 1 .287-.178h-.001Zm-7.831-.323h.001-.001Zm-1.394-.251h.001-.001Zm-1.418-.124Zm8.162-1.307Zm.614-.838a3.122 3.122 0 0 1 .001 0h-.001Zm-4.566-3.119Zm-5.901-8.544c.195.056.411.28.65.673l.121.21-.12-.21a4.52 4.52 0 0 0-.118-.183 2.225 2.225 0 0 0-.223-.28 1.177 1.177 0 0 0-.107-.098.597.597 0 0 0-.202-.112.354.354 0 0 0-.001 0Zm-23.465-30.657h.001-.001Zm1.311-.728Zm3.945-.573Zm10.038-.034Zm-9.034-.632c-.11.064-.221.133-.332.203l.333-.203c.11-.064.22-.126.33-.183l-.331.183Zm1.312-.618h.001-.001Zm1.595-.338h.001-.001Zm180.171-27.253h.001-.001Zm-.422-1.807h.001-.001Zm13.671-2.671h.001-.001Zm-1.949-1.104h.001-.001Zm-.82-.863h.001-.001Zm-7.761-8.496h-.001.001Zm.361-2.574h.001-.001Zm-1.456-2.322h-.001.001Zm-11.339-.922Zm9.893.298h-.001.001Zm-11.982-2.287Zm-3.744-.305h-.001.001Zm-.189-2.006h-.001.001Zm.587-8.177h.001-.001Zm-14.156-.249Zm-1.594-1.541h.001-.001Zm-26.019-13.407v-.001.001Zm-5.057-3.221v.001-.001Zm-19.7-2.47v.001-.001ZM539.714 91.17h-.001.001Zm-.647-1.992h-.001.001Zm3.804-3.566Zm-1.794-.919h-.001.001Zm-4.902-4.878c.027.013.056.025.088.036.128.044.3.078.514.104h.001c-.322-.039-.547-.098-.674-.178l.071.038Zm-.167-.125h.001-.001Zm.005-.214h.001-.001Zm.264-.27h.001-.001Zm.882-.509h.001-.001Z"/>
    </g>
</svg>
